<svg width="741" height="419" viewBox="0 0 741 419" fill="none" xmlns="http://www.w3.org/2000/svg">
<path d="M477 150C476.239 148.528 474.429 147.952 472.957 148.713C471.486 149.474 470.909 151.284 471.67 152.756L477 150ZM493.455 188.357L496.12 186.979L477 150L474.335 151.378L471.67 152.756L490.79 189.734L493.455 188.357Z" fill="white"/>
<path d="M475 151.5C489.377 156.317 497.5 169.5 494.5 186" stroke="white" stroke-width="6" stroke-linecap="round"/>
<path d="M515.975 212.829L511.803 204.854L495.854 213.197L500.025 221.171L515.975 212.829ZM534.025 286.171C536.329 290.576 541.767 292.279 546.171 289.975C550.576 287.671 552.279 282.233 549.975 277.829L534.025 286.171ZM508 217L500.025 221.171L534.025 286.171L542 282L549.975 277.829L515.975 212.829L508 217Z" fill="white"/>
<path d="M548.316 158.281L499.5 270" stroke="white" stroke-width="5" stroke-linecap="round"/>
<path d="M527.5 156C532 154 587.515 270.685 586 271" stroke="white" stroke-width="5" stroke-linecap="round"/>
<path d="M540 205.5L502 288.5" stroke="white" stroke-width="5" stroke-linecap="round"/>
<path d="M540 205.5L583 287.5" stroke="white" stroke-width="5" stroke-linecap="round"/>
<path d="M557 153.5C562.456 153.5 566.5 157.506 566.5 162C566.5 166.494 562.456 170.5 557 170.5C551.544 170.5 547.5 166.494 547.5 162C547.5 157.506 551.544 153.5 557 153.5Z" fill="white" stroke="white" stroke-width="5"/>
<path d="M520 153.5C525.456 153.5 529.5 157.506 529.5 162C529.5 166.494 525.456 170.5 520 170.5C514.544 170.5 510.5 166.494 510.5 162C510.5 157.506 514.544 153.5 520 153.5Z" fill="white" stroke="white" stroke-width="5"/>
<path d="M536.5 185C532.826 196.5 536.326 200.5 539 204.5" stroke="white" stroke-width="5" stroke-linecap="round"/>
<path d="M542 184.5C545.674 196 543.674 200.5 541 204.5" stroke="white" stroke-width="5" stroke-linecap="round"/>
<path d="M583 287.5C589.493 277.322 587 275 585.5 270" stroke="white" stroke-width="5" stroke-linecap="round"/>
<path d="M501.74 288.589C495.246 278.411 497.74 276.089 499.24 271.089" stroke="white" stroke-width="5" stroke-linecap="round"/>
<path d="M185.22 312.448C184.466 312.448 183.798 312.596 183.214 312.893C182.638 313.18 182.152 313.599 181.754 314.149C181.365 314.7 181.068 315.364 180.865 316.143C180.662 316.921 180.561 317.797 180.561 318.771C180.561 320.082 180.721 321.204 181.043 322.135C181.373 323.057 181.881 323.764 182.566 324.255C183.252 324.737 184.136 324.979 185.22 324.979C185.973 324.979 186.726 324.894 187.479 324.725C188.241 324.555 189.066 324.314 189.955 324.001V327.302C189.134 327.64 188.326 327.882 187.53 328.025C186.735 328.178 185.842 328.254 184.852 328.254C182.939 328.254 181.365 327.86 180.129 327.073C178.902 326.278 177.992 325.169 177.399 323.747C176.807 322.317 176.511 320.649 176.511 318.745C176.511 317.34 176.701 316.054 177.082 314.886C177.463 313.718 178.021 312.706 178.758 311.852C179.494 310.997 180.404 310.337 181.487 309.871C182.571 309.406 183.815 309.173 185.22 309.173C186.142 309.173 187.065 309.291 187.987 309.528C188.918 309.757 189.807 310.074 190.653 310.48L189.384 313.68C188.69 313.35 187.992 313.062 187.289 312.816C186.587 312.571 185.897 312.448 185.22 312.448ZM204.605 328H193.916V309.439H204.605V312.664H197.852V316.739H204.136V319.964H197.852V324.75H204.605V328ZM224.956 328H219.954L211.88 313.959H211.766C211.799 314.543 211.829 315.131 211.854 315.724C211.88 316.316 211.905 316.909 211.931 317.501C211.956 318.085 211.981 318.673 212.007 319.266V328H208.49V309.439H213.454L221.516 323.341H221.604C221.588 322.765 221.566 322.194 221.541 321.627C221.516 321.06 221.49 320.493 221.465 319.926C221.448 319.359 221.431 318.792 221.414 318.225V309.439H224.956V328ZM236.801 328H232.865V312.715H227.825V309.439H241.841V312.715H236.801V328ZM250.105 309.439C251.79 309.439 253.178 309.643 254.27 310.049C255.37 310.455 256.187 311.069 256.72 311.89C257.253 312.711 257.52 313.747 257.52 315C257.52 315.846 257.359 316.587 257.037 317.222C256.715 317.856 256.292 318.394 255.768 318.834C255.243 319.274 254.676 319.634 254.066 319.913L259.525 328H255.158L250.728 320.878H248.633V328H244.697V309.439H250.105ZM249.826 312.664H248.633V317.679H249.902C251.206 317.679 252.137 317.463 252.695 317.031C253.262 316.591 253.546 315.948 253.546 315.102C253.546 314.221 253.241 313.595 252.632 313.223C252.031 312.85 251.096 312.664 249.826 312.664ZM278.708 318.694C278.708 320.125 278.53 321.428 278.175 322.604C277.819 323.772 277.278 324.78 276.55 325.626C275.83 326.472 274.916 327.124 273.808 327.581C272.699 328.03 271.387 328.254 269.872 328.254C268.357 328.254 267.045 328.03 265.937 327.581C264.828 327.124 263.91 326.472 263.182 325.626C262.462 324.78 261.925 323.768 261.569 322.592C261.214 321.415 261.036 320.108 261.036 318.669C261.036 316.748 261.349 315.076 261.976 313.654C262.61 312.224 263.584 311.115 264.896 310.328C266.207 309.541 267.875 309.147 269.897 309.147C271.912 309.147 273.566 309.541 274.861 310.328C276.165 311.115 277.13 312.224 277.756 313.654C278.391 315.085 278.708 316.765 278.708 318.694ZM265.162 318.694C265.162 319.989 265.323 321.106 265.645 322.046C265.975 322.977 266.487 323.696 267.181 324.204C267.875 324.703 268.772 324.953 269.872 324.953C270.989 324.953 271.895 324.703 272.589 324.204C273.283 323.696 273.786 322.977 274.1 322.046C274.421 321.106 274.582 319.989 274.582 318.694C274.582 316.748 274.218 315.216 273.49 314.099C272.762 312.981 271.565 312.423 269.897 312.423C268.789 312.423 267.883 312.677 267.181 313.185C266.487 313.684 265.975 314.403 265.645 315.343C265.323 316.274 265.162 317.391 265.162 318.694ZM299.998 328H289.309V309.439H299.998V312.664H293.244V316.739H299.528V319.964H293.244V324.75H299.998V328ZM314.839 322.846C314.839 323.946 314.572 324.902 314.039 325.715C313.506 326.527 312.727 327.154 311.703 327.594C310.688 328.034 309.452 328.254 307.996 328.254C307.353 328.254 306.722 328.212 306.104 328.127C305.495 328.042 304.907 327.92 304.34 327.759C303.781 327.59 303.248 327.382 302.74 327.137V323.48C303.62 323.87 304.535 324.221 305.482 324.534C306.43 324.847 307.37 325.004 308.301 325.004C308.944 325.004 309.46 324.919 309.85 324.75C310.247 324.581 310.535 324.348 310.713 324.052C310.891 323.756 310.979 323.417 310.979 323.036C310.979 322.571 310.823 322.173 310.51 321.843C310.197 321.513 309.765 321.204 309.215 320.916C308.673 320.628 308.06 320.319 307.374 319.989C306.942 319.786 306.473 319.541 305.965 319.253C305.457 318.957 304.975 318.597 304.518 318.174C304.061 317.751 303.684 317.239 303.388 316.638C303.1 316.028 302.956 315.3 302.956 314.454C302.956 313.345 303.21 312.397 303.718 311.61C304.226 310.823 304.949 310.222 305.889 309.808C306.837 309.384 307.954 309.173 309.24 309.173C310.205 309.173 311.123 309.287 311.995 309.516C312.875 309.736 313.794 310.057 314.75 310.48L313.48 313.54C312.626 313.193 311.86 312.926 311.183 312.74C310.506 312.546 309.816 312.448 309.113 312.448C308.622 312.448 308.203 312.529 307.856 312.689C307.509 312.842 307.247 313.062 307.069 313.35C306.892 313.629 306.803 313.955 306.803 314.327C306.803 314.767 306.93 315.14 307.184 315.444C307.446 315.741 307.835 316.028 308.352 316.308C308.876 316.587 309.528 316.913 310.307 317.285C311.255 317.734 312.063 318.203 312.731 318.694C313.409 319.177 313.929 319.748 314.293 320.408C314.657 321.06 314.839 321.872 314.839 322.846ZM324.132 309.439C326.527 309.439 328.275 309.956 329.375 310.988C330.475 312.012 331.025 313.426 331.025 315.229C331.025 316.041 330.903 316.82 330.657 317.564C330.412 318.301 330.01 318.957 329.451 319.532C328.901 320.108 328.165 320.565 327.242 320.903C326.32 321.233 325.181 321.398 323.827 321.398H322.139V328H318.203V309.439H324.132ZM323.929 312.664H322.139V318.174H323.434C324.17 318.174 324.809 318.076 325.351 317.882C325.892 317.687 326.311 317.382 326.607 316.968C326.904 316.553 327.052 316.02 327.052 315.368C327.052 314.454 326.798 313.777 326.29 313.337C325.782 312.888 324.995 312.664 323.929 312.664ZM345.219 328H334.529V309.439H345.219V312.664H338.465V316.739H344.749V319.964H338.465V324.75H345.219V328ZM356.987 312.448C356.234 312.448 355.565 312.596 354.981 312.893C354.406 313.18 353.919 313.599 353.521 314.149C353.132 314.7 352.836 315.364 352.633 316.143C352.43 316.921 352.328 317.797 352.328 318.771C352.328 320.082 352.489 321.204 352.811 322.135C353.141 323.057 353.648 323.764 354.334 324.255C355.02 324.737 355.904 324.979 356.987 324.979C357.741 324.979 358.494 324.894 359.247 324.725C360.009 324.555 360.834 324.314 361.723 324.001V327.302C360.902 327.64 360.093 327.882 359.298 328.025C358.502 328.178 357.609 328.254 356.619 328.254C354.706 328.254 353.132 327.86 351.896 327.073C350.669 326.278 349.759 325.169 349.167 323.747C348.575 322.317 348.278 320.649 348.278 318.745C348.278 317.34 348.469 316.054 348.85 314.886C349.23 313.718 349.789 312.706 350.525 311.852C351.262 310.997 352.172 310.337 353.255 309.871C354.338 309.406 355.582 309.173 356.987 309.173C357.91 309.173 358.832 309.291 359.755 309.528C360.686 309.757 361.575 310.074 362.421 310.48L361.151 313.68C360.457 313.35 359.759 313.062 359.057 312.816C358.354 312.571 357.664 312.448 356.987 312.448ZM365.684 328V309.439H369.619V328H365.684ZM385.653 328L384.308 323.582H377.541L376.195 328H371.955L378.506 309.363H383.317L389.894 328H385.653ZM383.368 320.281L382.022 315.965C381.938 315.677 381.824 315.309 381.68 314.86C381.544 314.403 381.405 313.942 381.261 313.477C381.125 313.003 381.015 312.592 380.931 312.245C380.846 312.592 380.728 313.024 380.575 313.54C380.431 314.048 380.292 314.53 380.156 314.987C380.021 315.444 379.924 315.77 379.864 315.965L378.531 320.281H383.368ZM392.242 328V309.439H396.178V324.75H403.706V328H392.242ZM406.943 328V309.439H410.879V328H406.943ZM427.649 328H413.837V325.448L422.736 312.689H414.078V309.439H427.408V311.979L418.521 324.75H427.649V328ZM441.97 328L440.624 323.582H433.857L432.512 328H428.271L434.822 309.363H439.634L446.21 328H441.97ZM439.685 320.281L438.339 315.965C438.254 315.677 438.14 315.309 437.996 314.86C437.861 314.403 437.721 313.942 437.577 313.477C437.442 313.003 437.332 312.592 437.247 312.245C437.162 312.592 437.044 313.024 436.892 313.54C436.748 314.048 436.608 314.53 436.473 314.987C436.337 315.444 436.24 315.77 436.181 315.965L434.848 320.281H439.685ZM463.958 318.542C463.958 320.632 463.556 322.38 462.752 323.785C461.956 325.182 460.801 326.235 459.286 326.946C457.771 327.649 455.947 328 453.814 328H448.559V309.439H454.386C456.332 309.439 458.021 309.786 459.451 310.48C460.882 311.166 461.99 312.186 462.777 313.54C463.564 314.886 463.958 316.553 463.958 318.542ZM459.87 318.644C459.87 317.272 459.667 316.147 459.261 315.267C458.863 314.378 458.271 313.722 457.483 313.299C456.705 312.876 455.74 312.664 454.589 312.664H452.494V324.75H454.183C456.104 324.75 457.53 324.238 458.461 323.214C459.4 322.19 459.87 320.666 459.87 318.644ZM484.651 318.694C484.651 320.125 484.474 321.428 484.118 322.604C483.763 323.772 483.221 324.78 482.493 325.626C481.774 326.472 480.86 327.124 479.751 327.581C478.642 328.03 477.33 328.254 475.815 328.254C474.3 328.254 472.989 328.03 471.88 327.581C470.771 327.124 469.853 326.472 469.125 325.626C468.406 324.78 467.868 323.768 467.513 322.592C467.157 321.415 466.979 320.108 466.979 318.669C466.979 316.748 467.293 315.076 467.919 313.654C468.554 312.224 469.527 311.115 470.839 310.328C472.151 309.541 473.818 309.147 475.841 309.147C477.855 309.147 479.51 309.541 480.805 310.328C482.108 311.115 483.073 312.224 483.699 313.654C484.334 315.085 484.651 316.765 484.651 318.694ZM471.105 318.694C471.105 319.989 471.266 321.106 471.588 322.046C471.918 322.977 472.43 323.696 473.124 324.204C473.818 324.703 474.715 324.953 475.815 324.953C476.933 324.953 477.838 324.703 478.532 324.204C479.226 323.696 479.73 322.977 480.043 322.046C480.365 321.106 480.525 319.989 480.525 318.694C480.525 316.748 480.161 315.216 479.434 314.099C478.706 312.981 477.508 312.423 475.841 312.423C474.732 312.423 473.826 312.677 473.124 313.185C472.43 313.684 471.918 314.403 471.588 315.343C471.266 316.274 471.105 317.391 471.105 318.694ZM505.941 328H495.252V309.439H505.941V312.664H499.188V316.739H505.472V319.964H499.188V324.75H505.941V328ZM526.292 328H521.29L513.216 313.959H513.102C513.135 314.543 513.165 315.131 513.19 315.724C513.216 316.316 513.241 316.909 513.267 317.501C513.292 318.085 513.317 318.673 513.343 319.266V328H509.826V309.439H514.79L522.852 323.341H522.94C522.924 322.765 522.902 322.194 522.877 321.627C522.852 321.06 522.826 320.493 522.801 319.926C522.784 319.359 522.767 318.792 522.75 318.225V309.439H526.292V328ZM545.614 312.448C544.861 312.448 544.192 312.596 543.608 312.893C543.033 313.18 542.546 313.599 542.148 314.149C541.759 314.7 541.463 315.364 541.26 316.143C541.057 316.921 540.955 317.797 540.955 318.771C540.955 320.082 541.116 321.204 541.438 322.135C541.768 323.057 542.275 323.764 542.961 324.255C543.646 324.737 544.531 324.979 545.614 324.979C546.368 324.979 547.121 324.894 547.874 324.725C548.636 324.555 549.461 324.314 550.35 324.001V327.302C549.529 327.64 548.72 327.882 547.925 328.025C547.129 328.178 546.236 328.254 545.246 328.254C543.333 328.254 541.759 327.86 540.523 327.073C539.296 326.278 538.386 325.169 537.794 323.747C537.201 322.317 536.905 320.649 536.905 318.745C536.905 317.34 537.096 316.054 537.477 314.886C537.857 313.718 538.416 312.706 539.152 311.852C539.889 310.997 540.799 310.337 541.882 309.871C542.965 309.406 544.209 309.173 545.614 309.173C546.537 309.173 547.459 309.291 548.382 309.528C549.313 309.757 550.201 310.074 551.048 310.48L549.778 313.68C549.084 313.35 548.386 313.062 547.684 312.816C546.981 312.571 546.291 312.448 545.614 312.448ZM565.673 328L564.327 323.582H557.561L556.215 328H551.975L558.525 309.363H563.337L569.913 328H565.673ZM563.388 320.281L562.042 315.965C561.957 315.677 561.843 315.309 561.699 314.86C561.564 314.403 561.424 313.942 561.28 313.477C561.145 313.003 561.035 312.592 560.95 312.245C560.866 312.592 560.747 313.024 560.595 313.54C560.451 314.048 560.311 314.53 560.176 314.987C560.04 315.444 559.943 315.77 559.884 315.965L558.551 320.281H563.388ZM588.728 328H583.726L575.651 313.959H575.537C575.571 314.543 575.601 315.131 575.626 315.724C575.651 316.316 575.677 316.909 575.702 317.501C575.728 318.085 575.753 318.673 575.778 319.266V328H572.262V309.439H577.226L585.287 323.341H585.376C585.359 322.765 585.338 322.194 585.312 321.627C585.287 321.06 585.262 320.493 585.236 319.926C585.219 319.359 585.202 318.792 585.186 318.225V309.439H588.728V328ZM601.296 312.448C600.543 312.448 599.874 312.596 599.29 312.893C598.715 313.18 598.228 313.599 597.83 314.149C597.441 314.7 597.145 315.364 596.941 316.143C596.738 316.921 596.637 317.797 596.637 318.771C596.637 320.082 596.798 321.204 597.119 322.135C597.449 323.057 597.957 323.764 598.643 324.255C599.328 324.737 600.213 324.979 601.296 324.979C602.049 324.979 602.802 324.894 603.556 324.725C604.317 324.555 605.143 324.314 606.031 324.001V327.302C605.21 327.64 604.402 327.882 603.606 328.025C602.811 328.178 601.918 328.254 600.928 328.254C599.015 328.254 597.441 327.86 596.205 327.073C594.978 326.278 594.068 325.169 593.476 323.747C592.883 322.317 592.587 320.649 592.587 318.745C592.587 317.34 592.777 316.054 593.158 314.886C593.539 313.718 594.098 312.706 594.834 311.852C595.57 310.997 596.48 310.337 597.563 309.871C598.647 309.406 599.891 309.173 601.296 309.173C602.218 309.173 603.141 309.291 604.063 309.528C604.994 309.757 605.883 310.074 606.729 310.48L605.46 313.68C604.766 313.35 604.068 313.062 603.365 312.816C602.663 312.571 601.973 312.448 601.296 312.448ZM620.682 328H609.992V309.439H620.682V312.664H613.928V316.739H620.212V319.964H613.928V324.75H620.682V328ZM629.975 309.439C631.659 309.439 633.047 309.643 634.139 310.049C635.239 310.455 636.056 311.069 636.589 311.89C637.122 312.711 637.389 313.747 637.389 315C637.389 315.846 637.228 316.587 636.906 317.222C636.585 317.856 636.161 318.394 635.637 318.834C635.112 319.274 634.545 319.634 633.936 319.913L639.395 328H635.027L630.597 320.878H628.502V328H624.566V309.439H629.975ZM629.695 312.664H628.502V317.679H629.771C631.075 317.679 632.006 317.463 632.564 317.031C633.132 316.591 633.415 315.948 633.415 315.102C633.415 314.221 633.11 313.595 632.501 313.223C631.9 312.85 630.965 312.664 629.695 312.664ZM663.884 318.542C663.884 320.632 663.482 322.38 662.678 323.785C661.882 325.182 660.727 326.235 659.212 326.946C657.697 327.649 655.873 328 653.74 328H648.484V309.439H654.312C656.258 309.439 657.947 309.786 659.377 310.48C660.807 311.166 661.916 312.186 662.703 313.54C663.49 314.886 663.884 316.553 663.884 318.542ZM659.796 318.644C659.796 317.272 659.593 316.147 659.187 315.267C658.789 314.378 658.196 313.722 657.409 313.299C656.631 312.876 655.666 312.664 654.515 312.664H652.42V324.75H654.108C656.03 324.75 657.456 324.238 658.387 323.214C659.326 322.19 659.796 320.666 659.796 318.644ZM678.42 328H667.73V309.439H678.42V312.664H671.666V316.739H677.95V319.964H671.666V324.75H678.42V328ZM694.987 309.439C697.382 309.439 699.13 309.956 700.23 310.988C701.331 312.012 701.881 313.426 701.881 315.229C701.881 316.041 701.758 316.82 701.513 317.564C701.267 318.301 700.865 318.957 700.307 319.532C699.757 320.108 699.02 320.565 698.098 320.903C697.175 321.233 696.037 321.398 694.683 321.398H692.994V328H689.059V309.439H694.987ZM694.784 312.664H692.994V318.174H694.289C695.025 318.174 695.664 318.076 696.206 317.882C696.748 317.687 697.167 317.382 697.463 316.968C697.759 316.553 697.907 316.02 697.907 315.368C697.907 314.454 697.653 313.777 697.146 313.337C696.638 312.888 695.851 312.664 694.784 312.664ZM705.385 328V309.439H709.32V328H705.385ZM724.682 328H713.992V309.439H724.682V312.664H717.928V316.739H724.212V319.964H717.928V324.75H724.682V328ZM728.566 328V309.439H732.502V324.75H740.03V328H728.566Z" fill="white"/>
<path d="M329.22 105.42L325.78 102.84C325.78 89.6533 321.767 79.0467 313.74 71.02C306.287 62.42 297.113 55.8267 286.22 51.24C275.327 46.6533 263.573 43.5 250.96 41.78C238.92 40.06 228.313 39.2 219.14 39.2C192.767 39.2 169.833 44.0733 150.34 53.82C131.42 62.9933 115.653 75.6067 103.04 91.66C90.4267 107.14 80.9667 125.2 74.66 145.84C68.9267 165.907 66.06 186.547 66.06 207.76C66.06 229.547 69.2133 250.473 75.52 270.54C82.4 290.607 92.72 308.38 106.48 323.86C120.24 339.34 137.44 351.667 158.08 360.84C178.72 370.013 203.373 374.6 232.04 374.6C251.533 374.6 273.033 371.733 296.54 366C320.62 359.693 341.26 351.953 358.46 342.78L367.06 351.38L354.16 375.46C347.853 380.047 339.54 384.92 329.22 390.08C319.473 394.667 308.293 399.253 295.68 403.84C283.067 407.853 269.307 411.293 254.4 414.16C240.067 417.027 225.733 418.46 211.4 418.46C183.307 418.46 156.36 413.587 130.56 403.84C105.333 393.52 82.9733 379.473 63.48 361.7C44.56 343.353 29.3667 321.567 17.9 296.34C6.43334 270.54 0.700002 242.16 0.700002 211.2C0.700002 179.667 6.43334 151 17.9 125.2C29.3667 99.4 45.1333 77.3266 65.2 58.98C85.2667 40.6333 108.487 26.3 134.86 15.98C161.807 5.65998 190.473 0.499979 220.86 0.499979C248.38 0.499979 274.18 3.93998 298.26 10.82C322.913 17.7 341.547 24.58 354.16 31.46L356.74 39.2L347.28 105.42H329.22Z" fill="#F7A457"/>
<path d="M500.5 182.5C508.729 182.5 515.5 190.052 515.5 199.5C515.5 208.948 508.729 216.5 500.5 216.5C492.271 216.5 485.5 208.948 485.5 199.5C485.5 190.052 492.271 182.5 500.5 182.5Z" fill="white" stroke="white"/>
<path d="M262.014 291H181.727V146.799H262.014V161.594H198.494V208.247H258.364V222.845H198.494V276.205H262.014V291ZM408.089 159.522C400.132 159.522 392.965 160.903 386.587 163.665C380.274 166.361 374.882 170.306 370.411 175.501C366.006 180.63 362.619 186.844 360.252 194.143C357.885 201.441 356.701 209.661 356.701 218.801C356.701 230.9 358.575 241.421 362.323 250.363C366.137 259.24 371.792 266.112 379.288 270.978C386.85 275.843 396.286 278.276 407.596 278.276C414.04 278.276 420.089 277.75 425.744 276.698C431.465 275.58 437.021 274.2 442.413 272.556V287.153C437.153 289.126 431.629 290.573 425.843 291.493C420.056 292.479 413.185 292.973 405.229 292.973C390.565 292.973 378.302 289.948 368.438 283.898C358.641 277.783 351.276 269.169 346.345 258.057C341.479 246.944 339.046 233.826 339.046 218.702C339.046 207.787 340.558 197.825 343.583 188.816C346.674 179.742 351.145 171.917 356.997 165.342C362.915 158.766 370.148 153.703 378.696 150.152C387.31 146.536 397.174 144.728 408.286 144.728C415.585 144.728 422.621 145.451 429.394 146.897C436.166 148.344 442.282 150.415 447.739 153.111L441.032 167.314C436.429 165.21 431.366 163.402 425.843 161.89C420.385 160.312 414.467 159.522 408.089 159.522ZM668.775 146.799C687.384 146.799 700.963 150.448 709.511 157.747C718.125 164.98 722.432 175.369 722.432 188.915C722.432 195.03 721.412 200.85 719.374 206.373C717.401 211.831 714.179 216.664 709.708 220.872C705.237 225.015 699.352 228.302 692.053 230.735C684.82 233.103 675.943 234.286 665.422 234.286H647.865V291H631.098V146.799H668.775ZM667.197 161.101H647.865V219.886H663.548C672.754 219.886 680.414 218.899 686.529 216.927C692.71 214.954 697.346 211.765 700.437 207.359C703.527 202.888 705.072 196.97 705.072 189.605C705.072 180.005 702.015 172.871 695.899 168.202C689.784 163.468 680.217 161.101 667.197 161.101Z" fill="white"/>
</svg>
