<svg width="663" height="419" viewBox="0 0 663 419" fill="none" xmlns="http://www.w3.org/2000/svg">
<rect width="663" height="419" fill="#1E1E1E"/>
<path d="M329.22 105.42L325.78 102.84C325.78 89.6533 321.767 79.0467 313.74 71.02C306.287 62.42 297.113 55.8267 286.22 51.24C275.327 46.6533 263.573 43.5 250.96 41.78C238.92 40.06 228.313 39.2 219.14 39.2C192.767 39.2 169.833 44.0733 150.34 53.82C131.42 62.9933 115.653 75.6067 103.04 91.66C90.4267 107.14 80.9667 125.2 74.66 145.84C68.9267 165.907 66.06 186.547 66.06 207.76C66.06 229.547 69.2133 250.473 75.52 270.54C82.4 290.607 92.72 308.38 106.48 323.86C120.24 339.34 137.44 351.667 158.08 360.84C178.72 370.013 203.373 374.6 232.04 374.6C251.533 374.6 273.033 371.733 296.54 366C320.62 359.693 341.26 351.953 358.46 342.78L367.06 351.38L354.16 375.46C347.853 380.047 339.54 384.92 329.22 390.08C319.473 394.667 308.293 399.253 295.68 403.84C283.067 407.853 269.307 411.293 254.4 414.16C240.067 417.027 225.733 418.46 211.4 418.46C183.307 418.46 156.36 413.587 130.56 403.84C105.333 393.52 82.9733 379.473 63.48 361.7C44.56 343.353 29.3667 321.567 17.9 296.34C6.43334 270.54 0.700002 242.16 0.700002 211.2C0.700002 179.667 6.43334 151 17.9 125.2C29.3667 99.4 45.1333 77.3266 65.2 58.98C85.2667 40.6333 108.487 26.3 134.86 15.98C161.807 5.65998 190.473 0.499979 220.86 0.499979C248.38 0.499979 274.18 3.93998 298.26 10.82C322.913 17.7 341.547 24.58 354.16 31.46L356.74 39.2L347.28 105.42H329.22Z" fill="black"/>
<path d="M207.023 282H127.531V139.227H207.023V153.875H144.133V200.066H203.41V214.52H144.133V267.352H207.023V282ZM351.652 151.824C343.775 151.824 336.678 153.191 330.363 155.926C324.113 158.595 318.775 162.501 314.348 167.645C309.986 172.723 306.633 178.875 304.289 186.102C301.945 193.328 300.773 201.466 300.773 210.516C300.773 222.495 302.629 232.911 306.34 241.766C310.116 250.555 315.715 257.358 323.137 262.176C330.624 266.993 339.966 269.402 351.164 269.402C357.544 269.402 363.534 268.882 369.133 267.84C374.797 266.733 380.298 265.366 385.637 263.738V278.191C380.428 280.145 374.96 281.577 369.23 282.488C363.501 283.465 356.698 283.953 348.82 283.953C334.302 283.953 322.16 280.958 312.395 274.969C302.694 268.914 295.402 260.385 290.52 249.383C285.702 238.38 283.293 225.392 283.293 210.418C283.293 199.611 284.79 189.747 287.785 180.828C290.845 171.844 295.272 164.096 301.066 157.586C306.926 151.076 314.087 146.062 322.551 142.547C331.079 138.966 340.845 137.176 351.848 137.176C359.074 137.176 366.04 137.892 372.746 139.324C379.452 140.757 385.507 142.807 390.91 145.477L384.27 159.539C379.712 157.456 374.699 155.665 369.23 154.168C363.827 152.605 357.967 151.824 351.652 151.824ZM609.758 139.227C628.182 139.227 641.626 142.84 650.09 150.066C658.618 157.228 662.883 167.514 662.883 180.926C662.883 186.98 661.874 192.742 659.855 198.211C657.902 203.615 654.712 208.4 650.285 212.566C645.858 216.668 640.031 219.923 632.805 222.332C625.643 224.676 616.854 225.848 606.438 225.848H589.055V282H572.453V139.227H609.758ZM608.195 153.387H589.055V211.59H604.582C613.697 211.59 621.281 210.613 627.336 208.66C633.456 206.707 638.046 203.549 641.105 199.188C644.165 194.76 645.695 188.901 645.695 181.609C645.695 172.104 642.668 165.04 636.613 160.418C630.559 155.73 621.086 153.387 608.195 153.387Z" fill="black"/>
<path d="M129.474 300.077C128.45 300.077 127.527 300.255 126.706 300.61C125.894 300.957 125.2 301.465 124.624 302.134C124.057 302.794 123.621 303.594 123.316 304.533C123.012 305.473 122.859 306.531 122.859 307.707C122.859 309.264 123.101 310.618 123.583 311.77C124.074 312.912 124.802 313.797 125.767 314.423C126.74 315.049 127.954 315.362 129.41 315.362C130.24 315.362 131.018 315.295 131.746 315.159C132.482 315.015 133.198 314.838 133.892 314.626V316.505C133.215 316.759 132.504 316.945 131.759 317.063C131.014 317.19 130.13 317.254 129.105 317.254C127.218 317.254 125.64 316.865 124.37 316.086C123.109 315.299 122.161 314.19 121.526 312.76C120.9 311.329 120.587 309.641 120.587 307.694C120.587 306.289 120.782 305.007 121.171 303.848C121.569 302.68 122.144 301.673 122.897 300.826C123.659 299.98 124.59 299.328 125.69 298.871C126.799 298.406 128.069 298.173 129.499 298.173C130.438 298.173 131.344 298.266 132.216 298.452C133.088 298.638 133.875 298.905 134.577 299.252L133.714 301.08C133.121 300.809 132.47 300.576 131.759 300.382C131.056 300.179 130.295 300.077 129.474 300.077ZM148.25 317H137.916V298.439H148.25V300.344H140.074V306.349H147.78V308.228H140.074V315.096H148.25V317ZM166.874 317H164.386L154.268 301.41H154.166C154.191 301.825 154.221 302.299 154.255 302.832C154.289 303.357 154.314 303.92 154.331 304.521C154.356 305.113 154.369 305.718 154.369 306.336V317H152.363V298.439H154.839L164.919 313.979H165.008C164.991 313.682 164.97 313.263 164.944 312.722C164.919 312.172 164.894 311.583 164.868 310.957C164.851 310.322 164.843 309.734 164.843 309.192V298.439H166.874V317ZM177.64 317H175.469V300.344H169.629V298.439H183.454V300.344H177.64V317ZM191.274 298.439C192.798 298.439 194.055 298.63 195.045 299.011C196.044 299.383 196.788 299.954 197.279 300.725C197.77 301.495 198.016 302.477 198.016 303.67C198.016 304.652 197.838 305.473 197.482 306.133C197.127 306.785 196.661 307.313 196.086 307.72C195.51 308.126 194.897 308.439 194.245 308.659L199.336 317H196.822L192.277 309.256H188.418V317H186.26V298.439H191.274ZM191.147 300.306H188.418V307.428H191.363C192.878 307.428 193.991 307.119 194.702 306.501C195.422 305.883 195.781 304.973 195.781 303.771C195.781 302.51 195.4 301.618 194.639 301.093C193.885 300.568 192.722 300.306 191.147 300.306ZM218.404 307.694C218.404 309.125 218.222 310.428 217.858 311.604C217.494 312.772 216.953 313.78 216.233 314.626C215.522 315.464 214.638 316.111 213.58 316.568C212.522 317.025 211.295 317.254 209.898 317.254C208.46 317.254 207.203 317.025 206.128 316.568C205.062 316.111 204.173 315.46 203.462 314.613C202.759 313.767 202.23 312.756 201.875 311.579C201.528 310.403 201.354 309.099 201.354 307.669C201.354 305.773 201.668 304.11 202.294 302.68C202.92 301.249 203.868 300.136 205.138 299.341C206.416 298.545 208.015 298.147 209.937 298.147C211.773 298.147 213.318 298.541 214.57 299.328C215.831 300.115 216.784 301.224 217.427 302.654C218.078 304.076 218.404 305.756 218.404 307.694ZM203.627 307.694C203.627 309.269 203.851 310.631 204.3 311.782C204.748 312.933 205.434 313.822 206.356 314.448C207.287 315.075 208.468 315.388 209.898 315.388C211.337 315.388 212.514 315.075 213.428 314.448C214.35 313.822 215.032 312.933 215.472 311.782C215.912 310.631 216.132 309.269 216.132 307.694C216.132 305.299 215.628 303.429 214.621 302.083C213.622 300.729 212.061 300.052 209.937 300.052C208.498 300.052 207.313 300.361 206.382 300.979C205.451 301.596 204.757 302.477 204.3 303.619C203.851 304.753 203.627 306.112 203.627 307.694ZM239.631 317H229.297V298.439H239.631V300.344H231.455V306.349H239.161V308.228H231.455V315.096H239.631V317ZM254.218 312.062C254.218 313.162 253.943 314.101 253.393 314.88C252.851 315.65 252.089 316.238 251.107 316.645C250.126 317.051 248.97 317.254 247.642 317.254C246.939 317.254 246.275 317.22 245.648 317.152C245.022 317.085 244.447 316.987 243.922 316.86C243.397 316.733 242.936 316.577 242.538 316.391V314.321C243.173 314.584 243.947 314.829 244.861 315.058C245.775 315.278 246.732 315.388 247.73 315.388C248.661 315.388 249.449 315.265 250.092 315.02C250.735 314.766 251.222 314.406 251.552 313.94C251.89 313.466 252.06 312.899 252.06 312.239C252.06 311.604 251.92 311.076 251.641 310.652C251.361 310.221 250.896 309.831 250.244 309.484C249.601 309.129 248.721 308.752 247.604 308.354C246.816 308.075 246.122 307.771 245.521 307.44C244.921 307.102 244.417 306.721 244.011 306.298C243.604 305.875 243.296 305.384 243.084 304.825C242.881 304.267 242.779 303.628 242.779 302.908C242.779 301.918 243.029 301.072 243.528 300.369C244.036 299.658 244.734 299.117 245.623 298.744C246.52 298.363 247.549 298.173 248.708 298.173C249.698 298.173 250.612 298.266 251.45 298.452C252.297 298.638 253.071 298.888 253.773 299.201L253.101 301.055C252.432 300.775 251.721 300.543 250.968 300.356C250.223 300.17 249.453 300.077 248.657 300.077C247.862 300.077 247.189 300.196 246.639 300.433C246.097 300.661 245.682 300.987 245.395 301.41C245.107 301.833 244.963 302.337 244.963 302.921C244.963 303.573 245.098 304.114 245.369 304.546C245.648 304.978 246.089 305.363 246.689 305.701C247.299 306.031 248.103 306.378 249.102 306.742C250.193 307.14 251.12 307.563 251.882 308.012C252.644 308.452 253.223 308.993 253.621 309.637C254.019 310.271 254.218 311.08 254.218 312.062ZM262.863 298.439C265.258 298.439 267.006 298.909 268.106 299.849C269.215 300.78 269.77 302.117 269.77 303.86C269.77 304.647 269.638 305.396 269.376 306.107C269.122 306.81 268.707 307.432 268.132 307.974C267.556 308.507 266.799 308.93 265.859 309.243C264.928 309.548 263.786 309.7 262.432 309.7H260.172V317H258.014V298.439H262.863ZM262.66 300.28H260.172V307.847H262.19C263.375 307.847 264.361 307.72 265.148 307.466C265.944 307.212 266.541 306.801 266.938 306.234C267.336 305.659 267.535 304.897 267.535 303.949C267.535 302.714 267.142 301.795 266.354 301.194C265.567 300.585 264.336 300.28 262.66 300.28ZM283.988 317H273.654V298.439H283.988V300.344H275.812V306.349H283.519V308.228H275.812V315.096H283.988V317ZM296.036 300.077C295.012 300.077 294.09 300.255 293.269 300.61C292.456 300.957 291.762 301.465 291.187 302.134C290.619 302.794 290.184 303.594 289.879 304.533C289.574 305.473 289.422 306.531 289.422 307.707C289.422 309.264 289.663 310.618 290.146 311.77C290.636 312.912 291.364 313.797 292.329 314.423C293.302 315.049 294.517 315.362 295.973 315.362C296.802 315.362 297.581 315.295 298.309 315.159C299.045 315.015 299.76 314.838 300.454 314.626V316.505C299.777 316.759 299.066 316.945 298.321 317.063C297.576 317.19 296.692 317.254 295.668 317.254C293.781 317.254 292.202 316.865 290.933 316.086C289.672 315.299 288.724 314.19 288.089 312.76C287.463 311.329 287.149 309.641 287.149 307.694C287.149 306.289 287.344 305.007 287.733 303.848C288.131 302.68 288.707 301.673 289.46 300.826C290.222 299.98 291.153 299.328 292.253 298.871C293.362 298.406 294.631 298.173 296.062 298.173C297.001 298.173 297.907 298.266 298.778 298.452C299.65 298.638 300.437 298.905 301.14 299.252L300.276 301.08C299.684 300.809 299.032 300.576 298.321 300.382C297.619 300.179 296.857 300.077 296.036 300.077ZM304.479 317V298.439H306.637V317H304.479ZM323.382 317L321.097 311.109H313.657L311.385 317H309.201L316.463 298.363H318.405L325.616 317H323.382ZM320.449 309.192L318.278 303.34C318.228 303.188 318.143 302.938 318.024 302.591C317.914 302.244 317.8 301.884 317.682 301.512C317.563 301.139 317.466 300.839 317.39 300.61C317.305 300.957 317.212 301.304 317.11 301.651C317.017 301.99 316.924 302.307 316.831 302.604C316.738 302.891 316.658 303.137 316.59 303.34L314.381 309.192H320.449ZM328.193 317V298.439H330.352V315.07H338.591V317H328.193ZM341.777 317V298.439H343.936V317H341.777ZM360.376 317H347.49V315.375L357.481 300.369H347.833V298.439H360.109V300.064L350.105 315.07H360.376V317ZM375.56 317L373.274 311.109H365.835L363.562 317H361.379L368.641 298.363H370.583L377.794 317H375.56ZM372.627 309.192L370.456 303.34C370.405 303.188 370.321 302.938 370.202 302.591C370.092 302.244 369.978 301.884 369.859 301.512C369.741 301.139 369.644 300.839 369.567 300.61C369.483 300.957 369.39 301.304 369.288 301.651C369.195 301.99 369.102 302.307 369.009 302.604C368.916 302.891 368.835 303.137 368.768 303.34L366.559 309.192H372.627ZM395.11 307.542C395.11 309.632 394.729 311.38 393.968 312.785C393.206 314.182 392.102 315.235 390.654 315.946C389.215 316.649 387.468 317 385.411 317H380.371V298.439H385.97C387.857 298.439 389.482 298.786 390.845 299.48C392.207 300.166 393.257 301.186 393.993 302.54C394.738 303.886 395.11 305.553 395.11 307.542ZM392.838 307.618C392.838 305.951 392.559 304.576 392 303.492C391.45 302.409 390.637 301.605 389.562 301.08C388.496 300.547 387.188 300.28 385.64 300.28H382.529V315.146H385.157C387.713 315.146 389.63 314.516 390.908 313.255C392.195 311.994 392.838 310.115 392.838 307.618ZM415.334 307.694C415.334 309.125 415.152 310.428 414.788 311.604C414.424 312.772 413.882 313.78 413.163 314.626C412.452 315.464 411.568 316.111 410.51 316.568C409.452 317.025 408.225 317.254 406.828 317.254C405.389 317.254 404.132 317.025 403.058 316.568C401.991 316.111 401.103 315.46 400.392 314.613C399.689 313.767 399.16 312.756 398.805 311.579C398.458 310.403 398.284 309.099 398.284 307.669C398.284 305.773 398.597 304.11 399.224 302.68C399.85 301.249 400.798 300.136 402.067 299.341C403.345 298.545 404.945 298.147 406.866 298.147C408.703 298.147 410.247 298.541 411.5 299.328C412.761 300.115 413.713 301.224 414.356 302.654C415.008 304.076 415.334 305.756 415.334 307.694ZM400.557 307.694C400.557 309.269 400.781 310.631 401.229 311.782C401.678 312.933 402.364 313.822 403.286 314.448C404.217 315.075 405.398 315.388 406.828 315.388C408.267 315.388 409.443 315.075 410.357 314.448C411.28 313.822 411.961 312.933 412.401 311.782C412.841 310.631 413.062 309.269 413.062 307.694C413.062 305.299 412.558 303.429 411.551 302.083C410.552 300.729 408.991 300.052 406.866 300.052C405.427 300.052 404.243 300.361 403.312 300.979C402.381 301.596 401.687 302.477 401.229 303.619C400.781 304.753 400.557 306.112 400.557 307.694ZM436.561 317H426.227V298.439H436.561V300.344H428.385V306.349H436.091V308.228H428.385V315.096H436.561V317ZM455.185 317H452.696L442.578 301.41H442.477C442.502 301.825 442.532 302.299 442.565 302.832C442.599 303.357 442.625 303.92 442.642 304.521C442.667 305.113 442.68 305.718 442.68 306.336V317H440.674V298.439H443.149L453.229 313.979H453.318C453.301 313.682 453.28 313.263 453.255 312.722C453.229 312.172 453.204 311.583 453.179 310.957C453.162 310.322 453.153 309.734 453.153 309.192V298.439H455.185V317ZM474.938 300.077C473.914 300.077 472.992 300.255 472.171 300.61C471.358 300.957 470.664 301.465 470.089 302.134C469.522 302.794 469.086 303.594 468.781 304.533C468.477 305.473 468.324 306.531 468.324 307.707C468.324 309.264 468.565 310.618 469.048 311.77C469.539 312.912 470.267 313.797 471.231 314.423C472.205 315.049 473.419 315.362 474.875 315.362C475.704 315.362 476.483 315.295 477.211 315.159C477.947 315.015 478.662 314.838 479.356 314.626V316.505C478.679 316.759 477.968 316.945 477.224 317.063C476.479 317.19 475.594 317.254 474.57 317.254C472.683 317.254 471.104 316.865 469.835 316.086C468.574 315.299 467.626 314.19 466.991 312.76C466.365 311.329 466.052 309.641 466.052 307.694C466.052 306.289 466.246 305.007 466.636 303.848C467.034 302.68 467.609 301.673 468.362 300.826C469.124 299.98 470.055 299.328 471.155 298.871C472.264 298.406 473.534 298.173 474.964 298.173C475.903 298.173 476.809 298.266 477.681 298.452C478.552 298.638 479.34 298.905 480.042 299.252L479.179 301.08C478.586 300.809 477.935 300.576 477.224 300.382C476.521 300.179 475.759 300.077 474.938 300.077ZM495.022 317L492.737 311.109H485.298L483.025 317H480.842L488.104 298.363H490.046L497.257 317H495.022ZM492.09 309.192L489.919 303.34C489.868 303.188 489.784 302.938 489.665 302.591C489.555 302.244 489.441 301.884 489.322 301.512C489.204 301.139 489.106 300.839 489.03 300.61C488.946 300.957 488.853 301.304 488.751 301.651C488.658 301.99 488.565 302.307 488.472 302.604C488.379 302.891 488.298 303.137 488.23 303.34L486.021 309.192H492.09ZM514.345 317H511.856L501.738 301.41H501.637C501.662 301.825 501.692 302.299 501.726 302.832C501.759 303.357 501.785 303.92 501.802 304.521C501.827 305.113 501.84 305.718 501.84 306.336V317H499.834V298.439H502.31L512.39 313.979H512.479C512.462 313.682 512.44 313.263 512.415 312.722C512.39 312.172 512.364 311.583 512.339 310.957C512.322 310.322 512.313 309.734 512.313 309.192V298.439H514.345V317ZM527.345 300.077C526.321 300.077 525.398 300.255 524.577 300.61C523.765 300.957 523.071 301.465 522.495 302.134C521.928 302.794 521.492 303.594 521.188 304.533C520.883 305.473 520.73 306.531 520.73 307.707C520.73 309.264 520.972 310.618 521.454 311.77C521.945 312.912 522.673 313.797 523.638 314.423C524.611 315.049 525.826 315.362 527.281 315.362C528.111 315.362 528.889 315.295 529.617 315.159C530.354 315.015 531.069 314.838 531.763 314.626V316.505C531.086 316.759 530.375 316.945 529.63 317.063C528.885 317.19 528.001 317.254 526.977 317.254C525.089 317.254 523.511 316.865 522.241 316.086C520.98 315.299 520.032 314.19 519.397 312.76C518.771 311.329 518.458 309.641 518.458 307.694C518.458 306.289 518.653 305.007 519.042 303.848C519.44 302.68 520.015 301.673 520.769 300.826C521.53 299.98 522.461 299.328 523.562 298.871C524.67 298.406 525.94 298.173 527.37 298.173C528.31 298.173 529.215 298.266 530.087 298.452C530.959 298.638 531.746 298.905 532.448 299.252L531.585 301.08C530.993 300.809 530.341 300.576 529.63 300.382C528.927 300.179 528.166 300.077 527.345 300.077ZM546.121 317H535.787V298.439H546.121V300.344H537.945V306.349H545.651V308.228H537.945V315.096H546.121V317ZM555.249 298.439C556.772 298.439 558.029 298.63 559.02 299.011C560.018 299.383 560.763 299.954 561.254 300.725C561.745 301.495 561.99 302.477 561.99 303.67C561.99 304.652 561.812 305.473 561.457 306.133C561.102 306.785 560.636 307.313 560.061 307.72C559.485 308.126 558.871 308.439 558.22 308.659L563.311 317H560.797L556.252 309.256H552.393V317H550.234V298.439H555.249ZM555.122 300.306H552.393V307.428H555.338C556.853 307.428 557.966 307.119 558.677 306.501C559.396 305.883 559.756 304.973 559.756 303.771C559.756 302.51 559.375 301.618 558.613 301.093C557.86 300.568 556.696 300.306 555.122 300.306ZM587.774 307.542C587.774 309.632 587.394 311.38 586.632 312.785C585.87 314.182 584.766 315.235 583.318 315.946C581.88 316.649 580.132 317 578.075 317H573.035V298.439H578.634C580.521 298.439 582.146 298.786 583.509 299.48C584.871 300.166 585.921 301.186 586.657 302.54C587.402 303.886 587.774 305.553 587.774 307.542ZM585.502 307.618C585.502 305.951 585.223 304.576 584.664 303.492C584.114 302.409 583.301 301.605 582.227 301.08C581.16 300.547 579.853 300.28 578.304 300.28H575.193V315.146H577.821C580.377 315.146 582.294 314.516 583.572 313.255C584.859 311.994 585.502 310.115 585.502 307.618ZM602.234 317H591.9V298.439H602.234V300.344H594.059V306.349H601.765V308.228H594.059V315.096H602.234V317ZM617.951 298.439C620.346 298.439 622.094 298.909 623.194 299.849C624.303 300.78 624.857 302.117 624.857 303.86C624.857 304.647 624.726 305.396 624.464 306.107C624.21 306.81 623.795 307.432 623.22 307.974C622.644 308.507 621.887 308.93 620.947 309.243C620.016 309.548 618.874 309.7 617.52 309.7H615.26V317H613.102V298.439H617.951ZM617.748 300.28H615.26V307.847H617.278C618.463 307.847 619.449 307.72 620.236 307.466C621.032 307.212 621.629 306.801 622.026 306.234C622.424 305.659 622.623 304.897 622.623 303.949C622.623 302.714 622.229 301.795 621.442 301.194C620.655 300.585 619.424 300.28 617.748 300.28ZM628.742 317V298.439H630.9V317H628.742ZM646.338 317H636.004V298.439H646.338V300.344H638.162V306.349H645.868V308.228H638.162V315.096H646.338V317ZM650.451 317V298.439H652.609V315.07H660.849V317H650.451Z" fill="white"/>
<path d="M444.5 171.5C452.729 171.5 459.5 179.052 459.5 188.5C459.5 197.948 452.729 205.5 444.5 205.5C436.271 205.5 429.5 197.948 429.5 188.5C429.5 179.052 436.271 171.5 444.5 171.5Z" fill="black" stroke="black"/>
<path d="M421 139C420.239 137.528 418.429 136.952 416.957 137.713C415.486 138.474 414.909 140.284 415.67 141.756L421 139ZM437.455 177.357L440.12 175.979L421 139L418.335 140.378L415.67 141.756L434.79 178.734L437.455 177.357Z" fill="black"/>
<path d="M419 140.5C433.377 145.317 441.5 158.5 438.5 175" stroke="black" stroke-width="6" stroke-linecap="round"/>
<path d="M459.975 201.829L455.803 193.854L439.854 202.197L444.025 210.171L459.975 201.829ZM478.025 275.171C480.329 279.576 485.767 281.279 490.171 278.975C494.576 276.671 496.279 271.233 493.975 266.829L478.025 275.171ZM452 206L444.025 210.171L478.025 275.171L486 271L493.975 266.829L459.975 201.829L452 206Z" fill="black"/>
<line x1="492.053" y1="146.625" x2="443.625" y2="259.947" stroke="black" stroke-width="4" stroke-linecap="round"/>
<path opacity="0.99" d="M501 140.5C506.925 140.5 511.5 144.873 511.5 150C511.5 155.127 506.925 159.5 501 159.5C495.075 159.5 490.5 155.127 490.5 150C490.5 144.873 495.075 140.5 501 140.5Z" stroke="#020202" stroke-width="3"/>
<path d="M443.174 261C439.5 272.5 441.326 275.5 444 279.5" stroke="black" stroke-width="4.1" stroke-linecap="round"/>
</svg>
